# This file uses centimeters as units for non-parametric coordinates.

mtllib dulces.mtl
g default
v -1.368398 1.432608 0.519684
v -0.456133 1.432608 0.519684
v 0.456133 1.432608 0.519684
v 1.368398 1.432608 0.519684
v -1.368398 1.446089 0.519684
v -0.456133 1.446089 0.519684
v 0.456133 1.446089 0.519684
v 1.368398 1.446089 0.519684
v -1.368398 1.446089 -0.519684
v -0.456133 1.446089 -0.519684
v 0.456133 1.446089 -0.519684
v 1.368398 1.446089 -0.519684
v -1.368398 1.432608 -0.519684
v -0.456133 1.432608 -0.519684
v 0.456133 1.432608 -0.519684
v 1.368398 1.432608 -0.519684
vt 0.375000 0.000000
vt 0.458333 0.000000
vt 0.541667 0.000000
vt 0.625000 0.000000
vt 0.375000 0.250000
vt 0.458333 0.250000
vt 0.541667 0.250000
vt 0.625000 0.250000
vt 0.375000 0.500000
vt 0.458333 0.500000
vt 0.541667 0.500000
vt 0.625000 0.500000
vt 0.375000 0.750000
vt 0.458333 0.750000
vt 0.541667 0.750000
vt 0.625000 0.750000
vt 0.375000 1.000000
vt 0.458333 1.000000
vt 0.541667 1.000000
vt 0.625000 1.000000
vt 0.875000 0.000000
vt 0.875000 0.250000
vt 0.125000 0.000000
vt 0.125000 0.250000
vn 0.000000 0.000000 1.000000
vn 0.000000 0.000000 1.000000
vn 0.000000 0.000000 1.000000
vn 0.000000 0.000000 1.000000
vn 0.000000 0.000000 1.000000
vn 0.000000 0.000000 1.000000
vn 0.000000 0.000000 1.000000
vn 0.000000 0.000000 1.000000
vn 0.000000 1.000000 0.000000
vn 0.000000 1.000000 0.000000
vn 0.000000 1.000000 0.000000
vn 0.000000 1.000000 0.000000
vn 0.000000 1.000000 0.000000
vn 0.000000 1.000000 0.000000
vn 0.000000 1.000000 0.000000
vn 0.000000 1.000000 0.000000
vn 0.000000 0.000000 -1.000000
vn 0.000000 0.000000 -1.000000
vn 0.000000 0.000000 -1.000000
vn 0.000000 0.000000 -1.000000
vn 0.000000 0.000000 -1.000000
vn 0.000000 0.000000 -1.000000
vn 0.000000 0.000000 -1.000000
vn 0.000000 0.000000 -1.000000
vn 0.000000 -1.000000 0.000000
vn 0.000000 -1.000000 0.000000
vn 0.000000 -1.000000 0.000000
vn 0.000000 -1.000000 0.000000
vn 0.000000 -1.000000 0.000000
vn 0.000000 -1.000000 0.000000
vn 0.000000 -1.000000 0.000000
vn 0.000000 -1.000000 0.000000
vn 1.000000 0.000000 0.000000
vn 1.000000 0.000000 0.000000
vn 1.000000 0.000000 0.000000
vn 1.000000 0.000000 0.000000
vn -1.000000 0.000000 0.000000
vn -1.000000 0.000000 0.000000
vn -1.000000 0.000000 0.000000
vn -1.000000 0.000000 0.000000
s 1
g pCube1
usemtl phongE1SG
f 1/1/1 2/2/2 6/6/3 5/5/4
f 2/2/2 3/3/5 7/7/6 6/6/3
f 3/3/5 4/4/7 8/8/8 7/7/6
s 2
f 5/5/9 6/6/10 10/10/11 9/9/12
f 6/6/10 7/7/13 11/11/14 10/10/11
f 7/7/13 8/8/15 12/12/16 11/11/14
s 3
f 9/9/17 10/10/18 14/14/19 13/13/20
f 10/10/18 11/11/21 15/15/22 14/14/19
f 11/11/21 12/12/23 16/16/24 15/15/22
s 4
f 13/13/25 14/14/26 2/18/27 1/17/28
f 14/14/26 15/15/29 3/19/30 2/18/27
f 15/15/29 16/16/31 4/20/32 3/19/30
s off
f 4/4/33 16/21/34 12/22/35 8/8/36
f 13/23/37 1/1/38 5/5/39 9/24/40
